<svg width="219" height="53" viewBox="0 0 219 53" fill="none" xmlns="http://www.w3.org/2000/svg">
<path d="M10.2174 0.0971667H10.6328C13.1755 0.0971667 16.1579 1.20133 18.3096 3.67246C19.2198 4.58229 20.9982 8.83996 21.1595 9.22642L21.1683 9.25292L32.1192 38.4338C32.7554 40.0746 34.0765 41.0286 35.4197 41.128C36.1264 41.1418 36.8213 40.9456 37.4163 40.5643C38.0114 40.1829 38.4798 39.6336 38.7622 38.9859L38.8903 38.6547L42.3366 29.4746L48.1556 44.7254C45.2947 49.8664 42.5576 51.1892 39.3565 52.364C38.3588 52.6611 37.3337 52.8572 36.2968 52.9492L35.5169 53H34.4433C32.0706 52.9271 29.7245 52.2911 27.8422 51.1892C26.8106 50.4847 24.1419 48.7247 22.2442 44.4847L22.0012 43.9171L10.4627 11.7748V41.0529L10.6328 40.5649L14.8633 28.6664L20.3377 44.138C19.507 47.7132 17.0129 50.6989 14.0305 52.1189C13.0673 52.5605 12.3007 52.8211 11.364 52.9315L10.878 52.9757H10.582C8.22439 53.1034 5.88745 52.4768 3.91024 51.187C1.08029 49.1288 0.174525 46.6422 0.0154642 42.464L0 41.8877V10.1097C0.342422 4.87158 3.66723 2.00517 6.64962 0.708875C7.90885 0.273833 8.53184 0.130292 9.73584 0.101583L10.2174 0.0971667ZM197.37 0C207.238 0 215.324 5.21167 218.335 13.4885L218.538 14.0715L218.854 14.9681L218.004 15.4539C217.688 15.6482 215.867 16.4963 212.397 18.1216C211.478 18.5809 210.718 18.921 210.47 19.038L210.404 19.069L209.094 19.7248L208.732 18.3159C207.59 14.2658 204.046 9.87346 197.491 9.87346C189.309 9.87346 184.623 15.8183 184.623 26.1776C184.623 34.2822 187.95 42.9167 197.248 42.9167C202.31 42.9167 206.445 40.1563 208.407 35.5122L208.61 35.0087L209.07 33.8184L219 38.2837L218.514 39.3746C214.8 47.8413 206.642 52.9845 197.103 52.9845C196.787 52.9845 196.471 52.9845 196.155 52.9625C182.027 52.5495 173.263 42.4066 173.263 26.542C173.263 7.40012 185.352 0.2915 196.641 0.0242917C196.884 0 197.127 0 197.37 0ZM66.8298 1.73796C69.7083 3.89329 70.5699 6.26946 70.6826 10.5647L70.6936 11.1609V42.8417C70.3512 48.177 66.9049 51.0412 63.9225 52.364C62.6279 52.852 62.016 52.9757 60.4762 52.9757C57.8605 52.9757 54.5357 51.9952 52.384 49.279C51.4981 48.3669 49.7197 44.0894 49.5606 43.7007L49.5496 43.672L38.5987 14.639C38.3015 13.9149 37.816 13.2833 37.1926 12.8096C36.5692 12.3359 35.8305 12.0374 35.053 11.9449C33.8048 11.9228 32.5566 12.5963 31.8762 14.0649L31.7282 14.4182L28.4056 23.5982L22.5866 8.22604C25.4232 3.08504 28.1604 1.91021 31.3615 0.708875C32.2783 0.404125 33.4823 0.216417 34.567 0.121458L35.201 0.072875V0.0507917H35.444L35.5677 0.0375417L35.6892 0.0242917V0.0485833C38.2806 0.0242917 40.872 0.611708 42.9243 1.91021C43.956 2.59037 46.6026 4.25987 48.5002 8.49104L48.7432 9.05858L60.1581 41.3002V11.8941L59.8885 12.678L55.8811 24.2828L50.4289 8.78696C51.138 5.33533 53.7537 2.34746 56.7117 0.9275C57.4341 0.574167 58.3156 0.33125 59.1396 0.187708L59.7427 0.0949583V0.072875H59.9637C59.9857 0.046375 60.0123 0.046375 60.0123 0.046375C62.407 -0.150167 64.8283 0.510125 66.832 1.73575L66.8298 1.73796ZM110.485 0L129.179 52.4766H117.04L112.911 40.3683H95.1404L91.0136 52.4744H78.9471L97.6146 0H110.485ZM151.512 0C159.427 0 168.847 2.35408 168.847 13.5614C168.847 18.3159 166.855 22.4168 163.603 24.6737C167.802 26.882 170.23 31.2479 170.182 36.8284C170.182 46.5605 163.713 52.2536 152.38 52.47L151.706 52.4766H130.341V0H151.512ZM151.101 30.2762H141.873V42.4309H151.826C156.365 42.4309 158.623 40.4655 158.745 36.4154C158.793 34.6443 158.307 33.2133 157.337 32.2196C156.074 30.9564 153.94 30.2762 151.101 30.2762ZM104.052 15.4053L98.5403 30.3491H109.44L104.052 15.4053ZM151.39 9.84917H141.873V20.1842H151.05C155.248 20.1842 157.362 18.3402 157.362 14.6545C157.362 12.4219 156.684 9.84917 151.39 9.84917Z" fill="black"/>
</svg>
