<svg width="136" height="94" viewBox="0 0 136 94" fill="none" xmlns="http://www.w3.org/2000/svg">
<path d="M21.0325 90.2616C21.5137 79.7639 23.4897 68.7774 26.792 58.2392C27.3402 56.4896 27.8343 54.8672 27.89 54.6339C27.9456 54.4007 27.3716 55.2242 26.6144 56.464C22.6589 62.9402 17.1716 70.0153 12.9842 74.0383L11.7701 75.2047L11.8969 72.2357C12.1975 65.201 13.915 56.1511 16.3731 48.6493C16.8961 47.0531 17.2951 45.7184 17.2598 45.6831C17.2245 45.648 16.9228 46.1205 16.5893 46.7334C15.6155 48.5232 12.4149 53.1966 10.706 55.3238C8.85931 57.6226 5.4983 61.3141 5.2521 61.3141C4.9295 61.3141 5.47974 55.0805 6.12254 51.4529C6.57129 48.9204 7.8157 43.8989 8.45409 42.0444C8.67342 41.4073 8.82358 40.8567 8.78782 40.8209C8.75206 40.7853 8.06003 41.7791 7.24997 43.0295C5.52985 45.6847 3.02334 48.845 1.32611 50.4986L0.128967 51.665L0.259352 49.9685C1.2368 37.249 6.77189 24.3367 14.8955 15.8254L16.5147 14.1289L16.3879 16.4376C16.2393 19.1443 15.6366 22.8605 14.8913 25.6655C14.6 26.7619 14.3997 27.697 14.4461 27.7434C14.4925 27.7902 14.8865 27.179 15.3215 26.3861C16.6102 24.0369 19.5819 19.6581 21.5309 17.2367C23.6573 14.5948 26.6891 11.2659 26.9689 11.2659C27.2432 11.2659 26.9641 15.4444 26.4565 18.933C25.8956 22.7887 24.7178 27.8886 23.7948 30.4581C23.4811 31.3312 24.0875 30.4007 25.708 27.5217C29.5591 20.6803 35.3521 12.9703 40.1528 8.29691L41.7867 6.70642L41.644 9.46336C41.3064 15.9867 39.7812 24.6821 37.9093 30.7555C37.6792 31.5022 37.5235 32.1458 37.5635 32.1858C37.6034 32.2256 38.1472 31.3284 38.772 30.1918C43.9955 20.6896 51.3002 10.7353 58.3367 3.53069L61.0344 0.768555L61.0421 2.28932C61.063 6.41561 60.1196 14.7508 58.9101 21.1272C55.1121 41.149 45.6593 62.6897 33.597 78.8098C30.1924 83.3598 25.848 88.4034 22.6367 91.534L20.8965 93.2305L21.0325 90.2616ZM65.7325 62.992C61.8885 62.2383 58.9503 60.2614 57.5398 57.4794C56.984 56.3831 56.3923 54.0822 56.3854 52.9904L56.3816 52.4073H59.03H61.6782L61.798 52.9904C62.4074 55.9573 63.5349 57.3617 66.1309 58.3874C67.8283 59.0579 71.2561 59.0538 72.9655 58.3788C74.433 57.7996 75.8107 56.4009 76.0219 55.2757C76.2579 54.0185 76.0096 52.6929 75.3848 51.8743C74.4738 50.6804 72.6777 49.9296 68.2888 48.9078C63.6978 47.8389 62.3251 47.3637 60.736 46.2937C58.8516 45.0247 57.9677 43.5885 57.6377 41.2595C56.8215 35.4993 61.7304 30.988 68.8147 30.988C75.4872 30.988 79.8998 34.3173 80.69 39.9479L80.8313 40.9553H78.1483C76.1818 40.9553 75.4459 40.8844 75.3929 40.6902C74.8107 38.554 74.5469 37.9661 73.848 37.2469C72.7065 36.0722 71.4799 35.6073 69.209 35.4885C66.8981 35.3678 65.2306 35.7735 64.1536 36.7186C63.1896 37.5645 62.8865 38.3764 63.0043 39.7968C63.1815 41.9319 64.7214 42.9971 69.1356 44.038C75.3853 45.5117 77.668 46.3972 79.3014 47.9815C81.0326 49.6607 81.9056 52.5919 81.4488 55.1922C80.5449 60.3384 76.0173 63.2667 69.0688 63.1993C67.7509 63.1865 66.2496 63.0933 65.7325 62.992ZM119.507 62.8731C116.241 62.1804 113.301 60.1643 112 57.7244C111.341 56.4882 110.713 54.1924 110.705 52.9904L110.702 52.4073H113.336H115.971L116.2 53.4746C116.808 56.3066 118.682 58.1046 121.693 58.743C124.951 59.434 128.179 58.5438 129.716 56.5303C130.824 55.0781 130.588 52.5298 129.232 51.3038C128.529 50.6687 126.486 49.8553 124.238 49.3156C118.781 48.0053 117.716 47.6949 116.298 47.0005C113.682 45.7198 112.369 43.9996 111.949 41.3056C111.426 37.949 113.08 34.5558 116.101 32.7861C118.102 31.6142 119.737 31.1598 122.372 31.043C129.097 30.745 133.686 33.7096 134.805 39.0766C134.988 39.9502 135.043 40.6762 134.936 40.7832C134.833 40.8857 133.618 40.9426 132.234 40.9096L129.719 40.8495L129.47 39.8696C128.694 36.8282 126.636 35.4417 122.895 35.4417C119.391 35.4417 117.279 36.908 117.279 39.3407C117.279 41.87 118.827 42.9971 123.899 44.1616C129.786 45.513 132.009 46.3959 133.646 48.0319C136.811 51.1951 136.563 57.0654 133.134 60.1677C131.772 61.3997 129.586 62.4395 127.42 62.8858C125.382 63.3058 121.518 63.2998 119.507 62.8731ZM83.6448 62.3361C83.586 62.1822 83.5626 55.2331 83.5928 46.8935L83.6477 31.7305L92.5596 31.7359C101.318 31.7412 101.495 31.7491 102.838 32.2289C106.349 33.4832 107.628 35.3919 107.62 39.3655C107.615 41.4748 107.561 41.8017 107.05 42.7776C106.453 43.919 105.413 44.9587 104.288 45.5404L103.608 45.8915L104.908 46.5051C107.686 47.8168 108.997 49.8636 109.169 53.1613C109.316 55.9632 108.778 57.6658 107.214 59.3543C105.982 60.6848 104.581 61.5034 102.532 62.0897C101.446 62.4009 99.9784 62.4661 92.5055 62.5353C85.3959 62.6012 83.7317 62.5635 83.6448 62.3361ZM100.662 57.9091C104.015 56.6523 105.039 52.3536 102.556 49.9627C101.228 48.6843 100.674 48.5901 94.4977 48.5901H89.0585V53.3616V58.1331H94.5616C97.9058 58.1331 100.299 58.0453 100.662 57.9091ZM100.038 44.2346C101.66 43.5573 102.426 42.3016 102.426 40.321C102.426 38.7668 102.068 37.8345 101.187 37.0936C99.9978 36.0932 99.3016 35.9844 94.0449 35.9779L89.1646 35.9721L89.1072 40.2665L89.0497 44.5609H94.1534C98.2663 44.5609 99.4088 44.4974 100.038 44.2346Z" fill="black"/>
</svg>
